<svg width="8" height="67" viewBox="0 0 8 67" xmlns="http://www.w3.org/2000/svg"><title>Group 5</title><g fill="none" fill-rule="evenodd"><path d="M0 5.992c0 .438.186.838.557 1.198l4.434 4.287c.36.349.771.523 1.235.523.452 0 .861-.177 1.226-.532.365-.354.548-.745.548-1.173 0-.438-.186-.838-.557-1.198l-3.2-3.105 3.2-3.089c.371-.36.557-.76.557-1.198 0-.44-.183-.833-.548-1.182C7.087.174 6.678 0 6.226 0c-.464 0-.875.174-1.235.523L.557 4.81C.186 5.17 0 5.564 0 5.992z" fill="#00A8FF"/><path d="M0 60.992c0 .438.186.838.557 1.198l4.434 4.287c.36.349.771.523 1.235.523.452 0 .861-.177 1.226-.532.365-.354.548-.745.548-1.173 0-.438-.186-.838-.557-1.198l-3.2-3.105 3.2-3.089c.371-.36.557-.76.557-1.198 0-.44-.183-.833-.548-1.182-.365-.349-.774-.523-1.226-.523-.464 0-.875.174-1.235.523L.557 59.81c-.371.36-.557.754-.557 1.182z" fill="#FFF"/></g></svg>