<?xml version="1.0" encoding="UTF-8" standalone="no"?>
<svg width="8px" height="67px" viewBox="0 0 8 67" version="1.1" xmlns="http://www.w3.org/2000/svg" xmlns:xlink="http://www.w3.org/1999/xlink">
    <!-- Generator: Sketch 39.1 (31720) - http://www.bohemiancoding.com/sketch -->
    <title>Group 5</title>
    <desc>Created with Sketch.</desc>
    <defs></defs>
    <g id="Register" stroke="none" stroke-width="1" fill="none" fill-rule="evenodd">
        <g id="Registration---Admin-Info" transform="translate(-182.000000, -1126.000000)">
            <g id="btn_back" transform="translate(162.000000, 1108.000000)">
                <g id="Group-5" transform="translate(20.000000, 18.000000)">
                    <path d="M8,5.99156118 C8,6.43038194 7.81449461,6.82981536 7.44347826,7.18987342 L3.00869565,11.4767932 C2.64927357,11.8255995 2.23768348,12 1.77391304,12 C1.32173687,12 0.913045304,11.8227866 0.547826087,11.4683544 C0.18260687,11.1139223 0,10.7229276 0,10.2953586 C0,9.85653789 0.185505391,9.45710447 0.556521739,9.09704641 L3.75652174,5.99156118 L0.556521739,2.90295359 C0.185505391,2.54289553 0,2.14346211 0,1.70464135 C0,1.26582059 0.18260687,0.872012996 0.547826087,0.523206751 C0.913045304,0.174400506 1.32173687,0 1.77391304,0 C2.23768348,0 2.64927357,0.174400506 3.00869565,0.523206751 L7.44347826,4.81012658 C7.81449461,5.17018464 8,5.56399224 8,5.99156118 L8,5.99156118 Z" id="&gt;" fill="#00A8FF" transform="translate(4.000000, 6.000000) scale(-1, 1) translate(-4.000000, -6.000000) "></path>
                    <path d="M8,60.9915612 C8,61.4303819 7.81449461,61.8298154 7.44347826,62.1898734 L3.00869565,66.4767932 C2.64927357,66.8255995 2.23768348,67 1.77391304,67 C1.32173687,67 0.913045304,66.8227866 0.547826087,66.4683544 C0.18260687,66.1139223 0,65.7229276 0,65.2953586 C0,64.8565379 0.185505391,64.4571045 0.556521739,64.0970464 L3.75652174,60.9915612 L0.556521739,57.9029536 C0.185505391,57.5428955 0,57.1434621 0,56.7046414 C0,56.2658206 0.18260687,55.872013 0.547826087,55.5232068 C0.913045304,55.1744005 1.32173687,55 1.77391304,55 C2.23768348,55 2.64927357,55.1744005 3.00869565,55.5232068 L7.44347826,59.8101266 C7.81449461,60.1701846 8,60.5639922 8,60.9915612 L8,60.9915612 Z" id="&gt;-copy" fill="#FFFFFF" transform="translate(4.000000, 61.000000) scale(-1, 1) translate(-4.000000, -61.000000) "></path>
                </g>
            </g>
        </g>
    </g>
</svg>