<?xml version="1.0" encoding="UTF-8" standalone="no"?>
<svg width="8px" height="12px" viewBox="0 0 8 12" version="1.1" xmlns="http://www.w3.org/2000/svg" xmlns:xlink="http://www.w3.org/1999/xlink">
    <!-- Generator: Sketch 39.1 (31720) - http://www.bohemiancoding.com/sketch -->
    <title>&gt;</title>
    <desc>Created with Sketch.</desc>
    <defs></defs>
    <g id="Symbols" stroke="none" stroke-width="1" fill="none" fill-rule="evenodd">
        <g id="Registration-Form" transform="translate(-835.000000, -925.000000)" fill="#FFFFFF">
            <g id="btn_continue">
                <g transform="translate(663.000000, 908.000000)">
                    <path d="M179.443478,24.1898734 L175.008696,28.4767932 C174.649274,28.8255995 174.237683,29 173.773913,29 C173.321737,29 172.913045,28.8227866 172.547826,28.4683544 C172.182607,28.1139223 172,27.7229276 172,27.2953586 C172,26.8565379 172.185505,26.4571045 172.556522,26.0970464 L175.756522,22.9915612 L172.556522,19.9029536 C172.185505,19.5428955 172,19.1434621 172,18.7046414 C172,18.2658206 172.182607,17.872013 172.547826,17.5232068 C172.913045,17.1744005 173.321737,17 173.773913,17 C174.237683,17 174.649274,17.1744005 175.008696,17.5232068 L179.443478,21.8101266 C179.814495,22.1701846 180,22.5639922 180,22.9915612 C180,23.4303819 179.814495,23.8298154 179.443478,24.1898734 Z" id="&gt;"></path>
                </g>
            </g>
        </g>
    </g>
</svg>